<mxfile host="app.diagrams.net" modified="2023-06-01T19:51:41.539Z" agent="Mozilla/5.0 (Windows NT 10.0; Win64; x64) AppleWebKit/537.36 (KHTML, like Gecko) Chrome/110.0.0.0 YaBrowser/23.3.4.603 Yowser/2.5 Safari/537.36" version="21.3.6" etag="sMJf2_CVtaIkY36jZ68b" type="github">
  <diagram name="Страница 1" id="P2ChyMu0APSEKMghXah2">
    <mxGraphModel>
      <root>
        <mxCell id="0" />
        <mxCell id="1" parent="0" />
      </root>
    </mxGraphModel>
  </diagram>
</mxfile>
